HIERARCHY
ROOT Hips
{
	OFFSET 0.00000 0.00000 0.00000
	CHANNELS 6 Xposition Yposition Zposition Zrotation Yrotation Xrotation 
	JOINT LHipJoint
	{
		OFFSET 0 0 0
		CHANNELS 3 Zrotation Yrotation Xrotation
		JOINT LeftUpLeg
		{
			OFFSET 2.36090 -1.39315 1.24752
			CHANNELS 3 Zrotation Yrotation Xrotation
			JOINT LeftLeg
			{
				OFFSET 2.06810 -5.68207 0.00000
				CHANNELS 3 Zrotation Yrotation Xrotation
				JOINT LeftFoot
				{
					OFFSET 2.46631 -6.77613 0.00000
					CHANNELS 3 Zrotation Yrotation Xrotation
					JOINT LeftToeBase
					{
						OFFSET 0.26031 -0.71520 1.99545
						CHANNELS 3 Zrotation Yrotation Xrotation
						End Site
						{
							OFFSET 0.00000 -0.00000 1.05957
						}
					}
				}
			}
		}
	}
	JOINT RHipJoint
	{
		OFFSET 0 0 0
		CHANNELS 3 Zrotation Yrotation Xrotation
		JOINT RightUpLeg
		{
			OFFSET -2.25243 -1.39315 1.24752
			CHANNELS 3 Zrotation Yrotation Xrotation
			JOINT RightLeg
			{
				OFFSET -2.17343 -5.97145 0.00000
				CHANNELS 3 Zrotation Yrotation Xrotation
				JOINT RightFoot
				{
					OFFSET -2.52372 -6.93386 0.00000
					CHANNELS 3 Zrotation Yrotation Xrotation
					JOINT RightToeBase
					{
						OFFSET -0.22538 -0.61923 2.11447
						CHANNELS 3 Zrotation Yrotation Xrotation
						End Site
						{
							OFFSET -0.00000 -0.00000 1.10506
						}
					}
				}
			}
		}
	}
	JOINT LowerBack
	{
		OFFSET 0 0 0
		CHANNELS 3 Zrotation Yrotation Xrotation
		JOINT Spine
		{
			OFFSET 0.01594 2.13103 0.08007
			CHANNELS 3 Zrotation Yrotation Xrotation
			JOINT Spine1
			{
				OFFSET 0.01393 2.09723 0.18338
				CHANNELS 3 Zrotation Yrotation Xrotation
				JOINT Neck
				{
					OFFSET 0 0 0
					CHANNELS 3 Zrotation Yrotation Xrotation
					JOINT Neck1
					{
						OFFSET 0.05351 1.38915 0.32494
						CHANNELS 3 Zrotation Yrotation Xrotation
						JOINT Head
						{
							OFFSET 0.00711 1.45992 -0.21666
							CHANNELS 3 Zrotation Yrotation Xrotation
							End Site
							{
								OFFSET -0.00433 1.47702 -0.11056
							}
						}
					}
				}
				JOINT LeftShoulder
				{
					OFFSET 0 0 0
					CHANNELS 3 Zrotation Yrotation Xrotation
					JOINT LeftArm
					{
						OFFSET 2.87198 0.92249 0.11132
						CHANNELS 3 Zrotation Yrotation Xrotation
						JOINT LeftForeArm
						{
							OFFSET 5.52731 -0.00000 0.00000
							CHANNELS 3 Zrotation Yrotation Xrotation
							JOINT LeftHand
							{
								OFFSET 3.11059 -0.00000 0.00000
								CHANNELS 3 Zrotation Yrotation Xrotation
								JOINT LeftFingerBase
								{
									OFFSET 0 0 0
									CHANNELS 3 Zrotation Yrotation Xrotation
									JOINT LeftHandIndex1
									{
										OFFSET 0.41963 -0.00000 0.00000
										CHANNELS 3 Zrotation Yrotation Xrotation
										End Site
										{
											OFFSET 0.33831 -0.00000 0.00000
										}
									}
								}
								JOINT LThumb
								{
									OFFSET 0 0 0
									CHANNELS 3 Zrotation Yrotation Xrotation
									End Site
									{
										OFFSET 0.34348 -0.00000 0.34348
									}
								}
							}
						}
					}
				}
				JOINT RightShoulder
				{
					OFFSET 0 0 0
					CHANNELS 3 Zrotation Yrotation Xrotation
					JOINT RightArm
					{
						OFFSET -2.94710 0.68072 0.32187
						CHANNELS 3 Zrotation Yrotation Xrotation
						JOINT RightForeArm
						{
							OFFSET -5.25396 -0.00000 -0.00000
							CHANNELS 3 Zrotation Yrotation Xrotation
							JOINT RightHand
							{
								OFFSET -3.10567 -0.00000 0.00000
								CHANNELS 3 Zrotation Yrotation Xrotation
								JOINT RightFingerBase
								{
									OFFSET 0 0 0
									CHANNELS 3 Zrotation Yrotation Xrotation
									JOINT RightHandIndex1
									{
										OFFSET -0.49868 -0.00000 0.00000
										CHANNELS 3 Zrotation Yrotation Xrotation
										End Site
										{
											OFFSET -0.40204 -0.00000 0.00000
										}
									}
								}
								JOINT RThumb
								{
									OFFSET 0 0 0
									CHANNELS 3 Zrotation Yrotation Xrotation
									End Site
									{
										OFFSET -0.40818 -0.00000 0.40818
									}
								}
							}
						}
					}
				}
			}
		}
	}
}
MOTION
Frames: 11
Frame Time: .0083333
3.6823 9.1832 4.8733 0 0 0 0 0 0 -21 0 0 0 0 0 0 0 0 0 0 0 0 0 0 21 0 0 0 0 0 0 0 0 0 0 0 0 0 0 0 0 0 0 0 0 0 0 -16 0 0 21 0 0 11 0 0 0 -8 0 0 0 0 0 0 0 0 0 0 0 0 0 0 0 0 0 0 0 0 8 0 0 0 0 0 0 0 0 0 0 0 0 0 0 0 0 0
3.6823 9.1832 4.8733 -12.6021 -3.8308 -30.8692 0.0000 0.0000 0.0000 16.1795 -4.6414 -61.2447 20.5484 19.9928 91.6035 -0.5757 -13.6178 8.1997 0.5442 -4.7264 -13.1297 0.0000 0.0000 0.0000 10.0958 -0.6440 -51.9730 -20.5387 -19.9930 91.5753 -0.0409 0.3605 -3.7086 -0.2507 3.2215 -8.8961 -5.5956 2.6250 18.0833 1.6229 2.6186 9.6778 4.4169 1.0645 -0.0231 -6.5932 -7.5702 -21.1456 8.5645 -11.7711 30.1918 2.3479 -4.6425 15.0188 0.0000 0.0000 0.0000 -83.3774 -36.6910 55.1916 84.4371 -59.8827 -55.1843 -0.0000 0.0000 -50.2403 7.5548 14.4473 1.8952 -7.1250 0.0000 -0.0000 -18.1679 43.7683 0.5722 0.0000 0.0000 0.0000 75.0615 15.3686 34.6867 -101.9746 59.4512 -70.3512 0.0000 -0.0000 -45.2146 -1.2427 -23.6066 0.4977 7.1250 -0.0000 -0.0000 27.9949 -51.3406 -4.6829
3.6777 9.1880 4.8842 -12.2480 -3.8470 -30.2031 0.0000 0.0000 0.0000 15.9545 -4.3021 -61.5554 20.5022 19.9940 91.4685 -0.6455 -14.2955 8.0847 0.6881 -5.3031 -14.7752 0.0000 0.0000 0.0000 9.7677 -0.3536 -52.9717 -20.6566 -19.9897 91.9200 -0.0383 0.3068 -3.5961 -0.2480 3.2044 -8.8485 -5.7885 2.6856 17.7826 1.4995 2.6807 9.4978 4.3879 1.0979 -0.0709 -6.5190 -7.4598 -21.5199 8.5286 -11.5942 30.1588 2.3471 -4.5501 15.0599 -0.0000 0.0000 0.0000 -83.3556 -36.5223 54.9589 85.2715 -59.9153 -55.9061 -0.0000 0.0000 -50.0695 7.4324 14.5577 1.8780 -7.1250 0.0000 -0.0000 -18.3118 43.8604 0.5339 -0.0000 0.0000 0.0000 75.3358 15.4124 34.6204 -102.1665 59.4332 -70.5164 0.0000 -0.0000 -45.0038 -0.8760 -23.8096 0.3537 7.1250 -0.0000 -0.0000 28.4526 -51.4594 -4.8582
3.6731 9.1964 4.8939 -11.8932 -3.8408 -29.5334 0.0000 0.0000 0.0000 15.7476 -4.0689 -61.9503 20.4297 19.9956 91.2566 -0.6836 -14.7184 8.4400 0.7046 -5.3651 -14.9528 0.0000 0.0000 0.0000 9.4192 -0.0941 -53.9759 -20.7700 -19.9858 92.2520 -0.0359 0.2809 -3.4884 -0.2350 3.1201 -8.6133 -5.9856 2.7479 17.5516 1.3661 2.7392 9.2577 4.3483 1.1342 -0.2180 -6.8903 -7.2818 -21.1167 9.1828 -11.3618 29.5029 2.7272 -4.4330 14.7335 0.0000 -0.0000 0.0000 -83.3381 -36.2535 54.7569 85.9889 -59.9391 -56.5270 -0.0000 0.0000 -49.9226 7.4305 14.4364 1.8623 -7.1250 0.0000 -0.0000 -18.2731 43.7444 0.5870 0.0000 -0.0000 0.0000 75.6251 15.3780 34.5534 -102.3497 59.4158 -70.6742 0.0000 -0.0000 -44.8492 -0.7867 -23.5774 0.3147 7.1250 -0.0000 -0.0000 28.3948 -51.2409 -4.6862
3.6651 9.1936 4.8966 -11.6065 -3.7750 -29.2837 0.0000 0.0000 0.0000 15.5360 -3.9641 -62.0258 20.3631 19.9968 91.0618 -0.6961 -14.9504 9.0919 0.6001 -4.9591 -13.7920 0.0000 0.0000 0.0000 9.1080 0.0017 -54.5273 -20.8773 -19.9815 92.5660 -0.0366 0.3165 -3.5148 -0.2200 3.0195 -8.3330 -6.1082 2.7919 17.8023 1.2691 2.7561 9.1678 4.3019 1.1494 -0.4453 -6.7128 -7.2187 -21.5209 8.9244 -11.2146 29.4861 2.6108 -4.3704 14.7636 -0.0000 -0.0000 0.0000 -83.3160 -36.0511 54.4713 86.7566 -59.9602 -57.1915 -0.0000 0.0000 -49.8459 7.5325 14.3811 1.8810 -7.1250 0.0000 -0.0000 -18.1656 43.7027 0.6027 -0.0000 -0.0000 0.0000 75.8894 15.5058 34.5366 -102.5774 59.3937 -70.8702 0.0000 -0.0000 -44.6302 -0.7049 -23.5256 0.2814 7.1250 -0.0000 -0.0000 28.4385 -51.1822 -4.6512
3.6570 9.1906 4.9009 -11.3072 -3.7066 -28.9836 0.0000 0.0000 0.0000 15.3038 -3.8463 -62.1380 20.3003 19.9978 90.8779 -0.7223 -15.2813 9.5711 0.5390 -4.7038 -13.0656 0.0000 0.0000 0.0000 8.7757 0.0960 -55.1471 -20.9874 -19.9766 92.8880 -0.0363 0.3399 -3.4947 -0.2094 2.9464 -8.1296 -6.2574 2.8422 18.0123 1.1697 2.7778 9.0441 4.2674 1.1678 -0.6891 -6.7212 -7.1241 -21.6859 8.9469 -11.0413 29.2792 2.6493 -4.2924 14.6908 0.0000 -0.0000 0.0000 -83.3061 -35.8190 54.2168 87.5220 -59.9768 -57.8541 -0.0000 0.0000 -49.7576 7.6177 14.3376 1.8969 -7.1250 0.0000 -0.0000 -18.0767 43.6703 0.6145 0.0000 -0.0000 0.0000 76.1574 15.5769 34.5135 -102.7991 59.3719 -71.0610 0.0000 -0.0000 -44.4047 -0.5826 -23.4785 0.2321 7.1250 -0.0000 -0.0000 28.5220 -51.1210 -4.6216
3.6481 9.1856 4.9040 -11.0253 -3.6208 -28.7501 0.0000 0.0000 0.0000 15.0678 -3.7553 -62.2251 20.2431 19.9986 90.7109 -0.7438 -15.5740 10.0641 0.4487 -4.2974 -11.9149 0.0000 0.0000 0.0000 8.4487 0.1502 -55.6962 -21.0944 -19.9713 93.2012 -0.0364 0.3744 -3.4887 -0.2000 2.8795 -7.9434 -6.3934 2.8892 18.3215 1.0825 2.7893 8.9328 4.2374 1.1821 -0.9693 -6.7170 -7.0417 -21.8696 8.9202 -10.8745 29.0862 2.6639 -4.2214 14.6243 0.0000 -0.0000 0.0000 -83.3055 -35.5689 53.9539 88.2908 -59.9890 -58.5198 -0.0000 0.0000 -49.6913 7.7498 14.2845 1.9232 -7.1250 0.0000 -0.0000 -17.9439 43.6338 0.6264 0.0000 -0.0000 0.0000 76.4204 15.6639 34.5053 -103.0224 59.3494 -71.2531 0.0000 -0.0000 -44.1597 -0.4707 -23.4286 0.1872 7.1250 -0.0000 -0.0000 28.5942 -51.0592 -4.5891
3.6392 9.1800 4.9064 -10.7504 -3.5295 -28.5214 0.0000 0.0000 0.0000 14.8219 -3.6605 -62.3356 20.1925 19.9991 90.5627 -0.7665 -15.8563 10.4607 0.3600 -3.8543 -10.6672 0.0000 0.0000 0.0000 8.1222 0.1930 -56.2368 -21.1976 -19.9656 93.5036 -0.0365 0.4113 -3.4852 -0.1929 2.8283 -7.8010 -6.5242 2.9316 18.6515 1.0057 2.7929 8.8228 4.2165 1.1928 -1.2579 -6.7157 -6.9678 -22.1161 8.8627 -10.7140 28.9657 2.6653 -4.1539 14.6023 0.0000 -0.0000 0.0000 -83.3121 -35.3011 53.6765 89.0753 -59.9968 -59.1992 -0.0000 0.0000 -49.6453 7.9146 14.2438 1.9591 -7.1250 0.0000 -0.0000 -17.7864 43.6126 0.6301 0.0000 -0.0000 0.0000 76.6775 15.7679 34.5196 -103.2451 59.3266 -71.4446 0.0000 -0.0000 -43.8885 -0.3547 -23.4099 0.1409 7.1250 -0.0000 -0.0000 28.6888 -51.0242 -4.5805
3.6308 9.1753 4.9089 -10.4713 -3.4378 -28.2404 0.0000 0.0000 0.0000 14.5601 -3.5494 -62.5151 20.1458 19.9995 90.4264 -0.7906 -16.1149 10.7095 0.2895 -3.4604 -9.5632 0.0000 0.0000 0.0000 7.7867 0.2434 -56.8289 -21.2952 -19.9597 93.7893 -0.0363 0.4449 -3.4663 -0.1885 2.7962 -7.7118 -6.6602 2.9695 18.9400 0.9338 2.7909 8.6982 4.2059 1.2011 -1.5405 -6.7162 -6.9025 -22.3550 8.7804 -10.5562 28.8343 2.6562 -4.0918 14.5723 -0.0000 0.0000 0.0000 -83.3238 -35.0053 53.3863 89.8804 -59.9999 -59.8964 -0.0000 0.0000 -49.6137 8.1090 14.1965 2.0013 -7.1250 0.0000 -0.0000 -17.6009 43.5882 0.6341 -0.0000 0.0000 0.0000 76.9366 15.8794 34.5520 -103.4639 59.3038 -71.6329 0.0000 -0.0000 -43.5985 -0.2321 -23.4056 0.0922 7.1250 -0.0000 -0.0000 28.7977 -51.0007 -4.5830
3.6235 9.1729 4.9119 -10.1764 -3.3531 -27.8714 0.0000 0.0000 0.0000 14.2761 -3.4119 -62.7872 20.1003 19.9998 90.2933 -0.8139 -16.3254 10.7906 0.2459 -3.1910 -8.8111 0.0000 0.0000 0.0000 7.4346 0.3188 -57.5102 -21.3861 -19.9539 94.0556 -0.0355 0.4712 -3.4236 -0.1862 2.7789 -7.6639 -6.8067 3.0021 19.1403 0.8613 2.7852 8.5541 4.2036 1.2074 -1.7989 -6.7014 -6.8361 -22.5945 8.6705 -10.3923 28.6949 2.6345 -4.0294 14.5353 0.0000 0.0000 0.0000 -83.3331 -34.6790 53.0746 90.7210 -59.9980 -60.6244 -0.0000 0.0000 -49.5942 8.3172 14.1479 2.0465 -7.1250 0.0000 -0.0000 -17.4030 43.5639 0.6373 0.0000 0.0000 0.0000 77.2020 16.0009 34.6050 -103.6777 59.2812 -71.8167 0.0000 -0.0000 -43.2960 -0.0970 -23.4197 0.0386 7.1250 -0.0000 -0.0000 28.9289 -50.9914 -4.6001
3.6174 9.1730 4.9157 -9.8576 -3.2764 -27.3988 0.0000 0.0000 0.0000 13.9645 -3.2502 -63.1597 20.0531 19.9999 90.1554 -0.8319 -16.4572 10.7280 0.2282 -3.0748 -8.4870 0.0000 0.0000 0.0000 7.0580 0.4207 -58.2979 -21.4697 -19.9481 94.3006 -0.0342 0.4906 -3.3539 -0.1875 2.7891 -7.6921 -6.9676 3.0295 19.2352 0.7812 2.7765 8.3855 4.2045 1.2124 -2.0298 -6.6576 -6.7695 -22.8217 8.5248 -10.2252 28.5301 2.5938 -3.9684 14.4798 0.0000 -0.0000 0.0000 -83.3330 -34.3170 52.7420 91.6043 -59.9903 -61.3893 -0.0000 0.0000 -49.5915 8.5369 14.1010 2.0945 -7.1250 0.0000 -0.0000 -17.1956 43.5423 0.6387 0.0000 -0.0000 0.0000 77.4826 16.1225 34.6785 -103.8926 59.2580 -72.0013 0.0000 -0.0000 -42.9874 0.0350 -23.4355 -0.0139 7.1250 -0.0000 -0.0000 29.0584 -50.9840 -4.6183
